<?xml version="1.0" encoding="utf-8"?>
<svg viewBox="0 0 512 512" xmlns="http://www.w3.org/2000/svg">
  
  <ellipse style="fill: rgba(37, 37, 37, 1); stroke:#ac4042; stroke-width: 10px;" cx="251" cy="264.3" rx="220" ry="220"/>
  <g transform="matrix(0.058621, 0, 0, -0.069441, 99.929002, 427.772986)" fill="#ac4042" stroke="none" style="">
    <path d="M2330 4709 c-844 -81 -1593 -589 -1975 -1339 -133 -262 -206 -495 -250 -795 -10 -70 -22 -119 -34 -135 -50 -69 -65 -113 -65 -195 -1 -66 4 -90 25 -135 26 -56 64 -102 108 -133 l24 -16 -41 -45 c-174 -189 -158 -485 35 -666 35 -33 68 -60 73 -60 6 0 10 -72 10 -183 0 -199 9 -257 56 -349 36 -71 123 -159 193 -197 123 -65 -16 -61 2071 -61 2087 0 1948 -4 2071 61 70 38 157 126 193 197 47 92 56 150 56 349 0 111 4 183 10 183 5 0 38 27 73 60 193 181 209 477 35 666 l-41 45 24 16 c44 31 82 77 108 133 21 45 26 69 25 135 0 82 -15 127 -66 196 -12 16 -23 55 -29 105 -54 443 -251 908 -530 1251 -526 647 -1339 991 -2159 912z m565 -174 c384 -58 741 -208 1059 -443 129 -95 361 -327 458 -458 219 -295 365 -628 427 -971 l18 -103 -2297 0 -2297 0 18 103 c61 338 210 678 427 971 94 126 326 359 453 454 350 260 752 418 1174 462 123 12 438 4 560 -15z m1991 -2161 c53 -39 69 -71 69 -134 0 -63 -16 -95 -69 -134 l-27 -21 -2272 -3 c-1250 -1 -2287 0 -2305 3 -46 8 -108 71 -117 118 -15 77 23 154 90 183 25 11 431 13 2317 11 l2287 -2 27 -21z m-116 -482 c72 -35 114 -75 151 -144 31 -58 34 -70 34 -148 0 -78 -3 -90 -34 -148 -38 -70 -69 -100 -145 -140 l-51 -27 -2165 0 -2165 0 -63 34 c-69 38 -110 80 -144 151 -32 66 -31 196 2 265 42 86 125 154 215 176 17 4 995 6 2175 6 l2145 -2 45 -23z m-52 -932 c-3 -151 -6 -169 -28 -215 -31 -64 -92 -124 -155 -156 l-50 -24 -1925 0 -1925 0 -50 24 c-63 32 -124 92 -155 156 -22 46 -25 64 -28 215 l-4 165 2162 0 2162 0 -4 -165z"/>
    <path d="M1705 3815 c-24 -23 -25 -31 -25 -135 0 -104 1 -112 25 -135 15 -16 36 -25 55 -25 19 0 40 9 55 25 24 23 25 31 25 135 0 104 -1 112 -25 135 -15 16 -36 25 -55 25 -19 0 -40 -9 -55 -25z"/>
    <path d="M2505 3815 c-24 -23 -25 -31 -25 -135 0 -104 1 -112 25 -135 15 -16 36 -25 55 -25 19 0 40 9 55 25 24 23 25 31 25 135 0 104 -1 112 -25 135 -15 16 -36 25 -55 25 -19 0 -40 -9 -55 -25z"/>
    <path d="M3305 3815 c-24 -23 -25 -31 -25 -135 0 -104 1 -112 25 -135 15 -16 36 -25 55 -25 19 0 40 9 55 25 24 23 25 31 25 135 0 104 -1 112 -25 135 -15 16 -36 25 -55 25 -19 0 -40 -9 -55 -25z"/>
    <path d="M2105 3335 c-24 -23 -25 -31 -25 -135 0 -104 1 -112 25 -135 15 -16 36 -25 55 -25 19 0 40 9 55 25 24 23 25 31 25 135 0 104 -1 112 -25 135 -15 16 -36 25 -55 25 -19 0 -40 -9 -55 -25z"/>
    <path d="M2905 3335 c-24 -23 -25 -31 -25 -135 0 -104 1 -112 25 -135 15 -16 36 -25 55 -25 19 0 40 9 55 25 24 23 25 31 25 135 0 104 -1 112 -25 135 -15 16 -36 25 -55 25 -19 0 -40 -9 -55 -25z"/>
  </g>
</svg>