<?xml version="1.0" encoding="utf-8"?>
<svg viewBox="0 0 512 512" xmlns="http://www.w3.org/2000/svg">
  
  <ellipse style="fill: rgba(37, 37, 37, 1); stroke: #ac4042; stroke-width: 10px;" cx="250" cy="262" rx="220" ry="220"/>
  <g transform="matrix(0.056641, 0, 0, -0.056688, 100.000001, 399.9979)" fill="#ac4042" stroke="none">
    <path d="M4200 5106 c-350 -74 -597 -354 -626 -709 -7 -97 14 -240 50 -328 l23 -58 -46 -45 -46 -46 -130 130 c-153 154 -205 186 -300 184 -98 -2 -124 -20 -324 -217 -207 -205 -231 -241 -231 -342 0 -80 25 -131 101 -211 l62 -64 -54 0 c-148 -1 -317 -70 -421 -173 -118 -116 -178 -246 -186 -405 l-4 -92 -74 69 c-59 56 -84 73 -129 86 -112 33 -232 -13 -291 -112 -72 -120 -51 -225 68 -349 l59 -61 -98 -5 c-119 -6 -218 -41 -317 -112 -154 -109 -255 -307 -256 -496 l0 -54 -63 61 c-76 76 -131 103 -212 103 -104 0 -134 -21 -377 -266 -206 -209 -217 -222 -233 -278 -36 -125 -5 -192 175 -371 l130 -129 -99 -101 -99 -100 -126 -253 c-69 -139 -126 -262 -126 -272 0 -49 41 -90 90 -90 10 0 135 58 277 129 l258 129 95 96 94 96 146 -144 c130 -128 151 -146 200 -160 67 -20 93 -20 161 0 50 15 70 32 276 237 247 245 263 268 263 369 -1 84 -26 138 -103 216 l-61 62 54 0 c86 0 188 26 278 70 196 97 332 314 332 531 l0 72 69 -66 c84 -82 135 -107 216 -107 146 0 255 109 255 255 0 81 -25 132 -105 215 l-66 68 93 4 c222 11 419 142 515 343 38 80 63 184 63 264 l0 54 64 -62 c80 -76 131 -101 211 -101 102 0 136 23 346 236 165 168 188 195 204 243 21 64 16 133 -14 195 -12 23 -79 99 -155 175 l-135 135 118 121 c136 140 163 190 164 305 1 80 -13 125 -66 214 -53 90 -62 172 -27 254 25 57 83 116 139 139 45 20 134 21 185 4 52 -18 125 -86 148 -139 40 -89 18 -209 -52 -288 -79 -91 -96 -196 -47 -297 82 -166 307 -187 437 -40 99 113 167 257 191 406 60 382 -187 758 -566 861 -83 23 -264 29 -345 12z m336 -191 c181 -61 310 -188 379 -375 25 -66 28 -89 29 -190 0 -100 -3 -125 -28 -195 -29 -84 -100 -201 -143 -235 -15 -11 -41 -20 -61 -20 -80 0 -110 86 -54 152 83 96 113 176 113 293 0 121 -33 207 -115 294 -85 90 -182 131 -312 131 -174 0 -313 -89 -387 -249 -25 -53 -32 -82 -35 -152 -5 -102 11 -167 62 -252 48 -80 58 -120 44 -176 -10 -38 -29 -64 -119 -156 l-108 -110 -63 62 -62 62 82 84 c47 48 82 93 82 104 0 11 -16 56 -36 99 -23 49 -42 112 -52 168 -13 80 -13 99 1 184 60 371 429 596 783 477z m-1373 -856 c32 -16 876 -859 893 -892 21 -40 10 -77 -35 -121 -33 -32 -42 -36 -59 -27 -31 17 -66 13 -94 -9 -31 -24 -39 -59 -22 -98 12 -30 11 -31 -61 -101 -122 -118 -70 -151 -597 377 -528 527 -495 475 -377 597 l70 73 30 -15 c72 -36 147 46 108 119 -9 17 -6 26 23 55 48 51 81 62 121 42z m-299 -859 c81 -28 142 -69 212 -143 71 -73 97 -115 124 -192 68 -198 3 -427 -153 -536 -77 -54 -155 -81 -252 -87 -160 -9 -275 37 -396 157 -110 111 -159 223 -159 366 0 124 52 254 134 335 47 47 158 104 231 119 70 14 189 6 259 -19z m-1041 -481 c32 -16 876 -859 893 -892 37 -69 -36 -144 -108 -113 -42 18 -883 861 -897 898 -14 37 4 84 38 103 32 17 46 18 74 4z m-22 -545 c93 -28 151 -64 230 -143 112 -112 159 -219 159 -360 -1 -95 -13 -149 -52 -228 -83 -168 -288 -267 -485 -234 -220 38 -411 230 -444 449 -18 124 18 268 92 366 51 67 171 139 264 159 51 11 185 6 236 -9z m-559 -932 c528 -527 495 -475 376 -598 -48 -50 -75 -71 -82 -64 -13 13 -72 13 -95 0 -30 -16 -45 -64 -32 -102 11 -31 10 -34 -56 -100 -70 -71 -106 -87 -145 -68 -33 17 -876 859 -894 893 -24 44 -10 77 65 151 60 60 71 67 89 57 31 -17 66 -13 95 9 32 26 42 64 23 100 -14 29 -13 29 59 99 122 118 70 151 597 -377z m-607 -612 l59 -60 -79 -81 c-70 -71 -95 -88 -208 -145 l-127 -64 61 122 c53 106 72 134 142 206 45 45 84 82 87 82 3 0 32 -27 65 -60z"/>
    <path d="M2645 3005 c-52 -51 -16 -145 55 -145 39 0 90 47 90 83 0 14 -12 39 -26 56 -33 40 -83 43 -119 6z"/>
    <path d="M1852 1727 c-45 -48 -21 -127 45 -143 53 -14 112 48 99 101 -16 63 -101 88 -144 42z"/>
  </g>
</svg>