<?xml version="1.0" encoding="utf-8"?>
<svg viewBox="0 0 512 512" xmlns="http://www.w3.org/2000/svg">
  
  <ellipse style="fill: rgba(37, 37, 37, 1); stroke: #ac4042; stroke-width: 10px;" cx="255.1" cy="250" rx="220" ry="220"/>
  <g transform="matrix(0.068503, 0, 0, -0.088027, 80.000001, 474.949317)" fill="#ac4042" stroke="none">
    <path d="M2210 4249 c-909 -60 -1692 -372 -1878 -748 -35 -70 -37 -81 -37 -165 1 -63 6 -103 18 -130 16 -37 16 -41 -4 -108 -25 -80 -22 -165 7 -237 15 -38 15 -44 0 -82 -22 -55 -31 -155 -18 -201 10 -35 9 -37 -26 -61 -110 -74 -209 -194 -249 -303 -19 -54 -23 -84 -23 -183 0 -137 12 -188 76 -311 202 -391 777 -688 1569 -809 319 -49 601 -65 1045 -58 481 8 777 36 1113 107 479 102 805 255 1037 489 122 123 183 219 230 358 78 234 40 427 -116 593 -37 39 -88 86 -114 105 l-48 35 10 43 c12 52 4 142 -18 196 -15 38 -15 43 3 88 24 62 24 180 0 249 -16 46 -16 54 -2 87 23 55 29 146 15 208 -51 219 -318 437 -730 596 -501 194 -1204 285 -1860 242z m645 -169 c531 -34 1010 -147 1356 -320 172 -87 339 -221 397 -320 39 -65 37 -145 -3 -220 -102 -186 -419 -363 -864 -482 -133 -35 -147 -42 -161 -82 -6 -18 -10 -182 -10 -424 0 -393 0 -396 -22 -419 -21 -23 -67 -30 -103 -17 -24 10 -45 58 -45 105 0 55 -30 89 -77 89 -62 0 -85 -26 -97 -113 -18 -134 -194 -183 -287 -81 -42 47 -49 84 -49 271 0 171 0 174 -25 198 -24 25 -65 32 -100 19 -20 -8 -45 -56 -45 -86 0 -34 -35 -85 -71 -104 -68 -35 -157 7 -179 85 -5 20 -10 111 -10 202 0 222 10 212 -225 224 -817 40 -1582 312 -1743 620 -37 70 -37 153 0 215 76 130 280 275 541 384 479 201 1167 298 1822 256z m-2233 -1216 c317 -212 849 -366 1454 -419 93 -8 179 -15 192 -15 21 0 22 -3 22 -86 l0 -86 -97 6 c-668 47 -1249 218 -1560 458 -86 66 -150 155 -169 233 l-7 30 34 -28 c19 -15 78 -57 131 -93z m4004 63 c-44 -148 -253 -304 -570 -428 -92 -36 -288 -99 -308 -99 -4 0 -8 36 -8 80 l0 79 73 21 c309 89 578 209 732 328 50 38 91 68 93 67 1 -1 -4 -23 -12 -48z m-4091 -342 c316 -256 977 -451 1668 -491 114 -7 119 -8 132 -33 33 -59 102 -116 167 -136 43 -14 42 -14 -52 -14 -189 -1 -514 29 -755 70 -626 106 -1125 346 -1214 584 -34 90 -32 90 54 20z m4090 -3 c-39 -129 -217 -274 -473 -387 -103 -45 -317 -119 -376 -131 l-36 -6 0 80 c0 68 3 81 18 86 269 77 380 117 537 191 92 44 243 139 305 193 19 16 36 29 37 28 2 -2 -4 -26 -12 -54z m-4284 -461 c68 -138 240 -280 481 -396 305 -147 698 -247 1188 -302 221 -25 859 -25 1080 0 489 55 883 155 1186 301 170 82 270 150 369 250 91 91 127 153 154 256 l18 71 33 -37 c109 -125 117 -317 20 -510 -191 -380 -796 -627 -1745 -715 -189 -17 -775 -23 -975 -10 -539 36 -950 121 -1287 267 -350 151 -598 369 -674 591 -35 100 -33 208 3 286 15 32 42 77 60 99 l32 41 13 -64 c7 -35 27 -93 44 -128z m299 43 c406 -262 1139 -424 1917 -424 l205 0 46 -51 c25 -28 67 -63 94 -78 l48 -28 -97 -6 c-271 -18 -674 -4 -963 34 -771 100 -1363 373 -1425 657 l-7 34 59 -48 c32 -26 87 -66 123 -90z m3994 99 c-48 -197 -376 -406 -846 -539 -48 -13 -92 -24 -98 -24 -5 0 2 18 16 40 15 22 29 60 32 85 2 25 8 48 13 51 4 2 68 22 141 44 160 47 304 103 424 163 98 49 258 152 288 186 26 29 38 26 30 -6z m-1914 -338 c0 -11 -11 -15 -37 -14 l-38 0 35 13 c19 8 36 14 38 15 1 0 2 -6 2 -14z m644 -278 c17 -12 12 -15 -53 -24 l-73 -9 39 32 c39 33 45 33 87 1z"/>
    <path d="M1969 3946 c-91 -24 -161 -99 -180 -195 l-12 -56 -192 3 c-180 3 -196 2 -244 -18 -56 -25 -114 -82 -139 -139 -21 -47 -24 -375 -4 -433 21 -60 65 -111 123 -143 53 -29 57 -30 221 -33 214 -5 260 6 333 81 49 51 75 105 75 158 l0 24 207 0 c184 0 212 2 246 19 49 24 92 67 120 120 21 38 22 54 22 241 0 187 -1 203 -22 241 -30 57 -97 111 -157 129 -62 19 -329 19 -397 1z m387 -189 c23 -27 24 -34 24 -183 l0 -156 -29 -29 -29 -29 -156 0 c-149 0 -156 1 -183 24 -28 24 -28 24 -31 171 -5 232 -1 236 226 232 l154 -2 24 -28z m-601 -252 c24 -24 25 -28 25 -184 0 -155 -1 -161 -24 -188 l-24 -28 -160 0 c-156 0 -161 1 -186 24 -26 24 -26 25 -26 188 0 161 0 164 25 188 24 24 27 25 185 25 158 0 161 -1 185 -25z"/>
    <path d="M4265 3505 c-14 -13 -25 -34 -25 -47 -1 -42 -36 -103 -88 -149 -182 -164 -643 -285 -1156 -306 -169 -6 -171 -7 -198 -34 -39 -38 -34 -92 11 -126 35 -27 361 -10 636 32 468 73 798 223 918 417 25 42 51 142 43 172 -16 65 -95 88 -141 41z"/>
  </g>
</svg>