<?xml version="1.0" encoding="utf-8"?>
<svg viewBox="0 0 512 512" xmlns="http://www.w3.org/2000/svg">

  <ellipse style="fill: rgba(37, 37, 37, 1); stroke: #ac4042; stroke-width: 10px;" cx="250" cy="251" rx="220" ry="220"/>
    <g transform="matrix(0.058656, 0, 0, -0.059047, 99.70672, 401.092566)" fill="#ac4042" stroke="none">
    <path d="M4585 5081 c-51 -23 -101 -80 -114 -128 -6 -21 -13 -81 -17 -133 l-7 -95 -125 -127 c-118 -120 -126 -126 -158 -121 -53 9 -80 -3 -150 -70 l-67 -62 -104 0 c-102 0 -105 -1 -129 -28 -29 -34 -30 -56 -5 -89 19 -23 28 -25 141 -31 142 -8 159 -3 238 68 l54 48 96 -96 96 -96 -41 -44 c-77 -84 -78 -86 -79 -242 -1 -148 -13 -205 -70 -333 l-24 -54 -46 34 c-46 33 -142 130 -170 172 -13 20 -12 27 7 62 37 67 23 102 -80 205 -117 118 -170 131 -250 62 -23 -19 -45 -31 -51 -28 -6 4 -61 12 -123 18 l-112 12 103 69 c56 38 107 77 113 88 22 40 -17 98 -66 98 -49 0 -198 -96 -307 -198 -58 -54 -58 -54 -241 24 -226 96 -325 112 -471 74 -99 -25 -334 -128 -346 -151 -26 -48 10 -109 64 -109 16 0 74 20 130 44 179 77 194 81 291 81 87 -1 95 -3 235 -61 232 -97 298 -113 475 -114 50 0 100 -3 113 -6 22 -6 21 -8 -22 -54 -84 -89 -74 -139 52 -263 130 -127 166 -129 281 -13 l74 74 101 -102 c63 -64 142 -130 209 -176 172 -117 237 -204 237 -317 l0 -43 -1760 0 -1760 0 0 43 c0 102 60 192 188 284 l67 48 207 5 208 5 32 33 33 32 3 126 c4 146 2 162 -34 198 -26 26 -27 27 -8 42 61 49 186 83 305 84 34 0 51 6 67 23 31 33 29 80 -6 107 -25 21 -34 22 -117 16 -193 -14 -277 -50 -394 -163 l-74 -73 -114 0 c-181 0 -203 -22 -203 -204 l0 -115 -63 -45 c-161 -115 -247 -253 -247 -398 l0 -47 -202 -3 c-183 -3 -208 -5 -250 -25 -66 -30 -133 -96 -165 -162 -24 -47 -28 -69 -28 -137 0 -73 4 -88 35 -150 40 -77 103 -133 182 -159 l46 -16 -45 -107 c-87 -206 -95 -232 -95 -307 1 -62 25 -151 212 -764 149 -493 221 -714 247 -764 78 -147 239 -267 408 -302 105 -22 3025 -22 3130 0 169 35 330 155 408 302 26 50 98 271 247 764 187 613 211 702 212 764 0 75 -8 101 -95 307 l-45 107 46 16 c79 26 142 82 182 159 32 62 35 77 35 150 0 61 -5 92 -22 128 -30 66 -96 133 -162 165 -55 27 -61 28 -258 31 l-203 3 0 47 c0 116 -53 225 -155 320 l-72 67 38 80 c58 125 82 230 84 367 l1 116 62 66 c66 70 78 97 69 150 -5 32 1 40 121 158 l127 125 95 7 c121 8 162 20 207 59 94 83 97 217 7 304 -43 41 -93 63 -146 63 -24 0 -28 4 -28 26 0 45 -21 101 -53 140 -58 70 -159 93 -242 55z m125 -151 c18 -18 19 -29 14 -103 -6 -79 -5 -83 20 -106 24 -23 30 -24 105 -17 73 6 83 4 101 -14 25 -25 26 -54 1 -79 -13 -13 -40 -20 -92 -25 -41 -3 -99 -9 -129 -12 l-55 -6 -143 -141 -142 -141 -42 42 -42 42 140 142 141 143 6 60 c4 33 9 91 13 129 9 98 55 135 104 86z m-990 -1115 l44 -45 -99 -100 -99 -100 -43 42 c-24 23 -43 47 -43 52 0 11 180 196 190 196 3 0 26 -20 50 -45z m-2330 -290 l0 -65 -140 0 -140 0 0 65 0 65 140 0 140 0 0 -65z m3476 -764 c130 -59 137 -241 13 -310 l-37 -21 -2282 0 -2282 0 -37 21 c-124 69 -117 251 13 310 40 18 123 19 2306 19 2183 0 2266 -1 2306 -19z m-99 -666 c87 -209 89 -229 45 -370 l-28 -90 -1671 -3 -1672 -2 -20 -26 c-32 -40 -26 -84 13 -107 16 -9 395 -13 1662 -17 l1640 -5 -50 -167 -51 -168 -2075 0 -2075 0 -51 168 -50 167 398 5 c393 5 398 5 419 27 27 26 29 77 5 101 -15 15 -59 17 -443 22 l-427 5 -28 90 c-43 139 -41 163 37 350 37 88 71 170 76 183 l9 22 2130 -2 2131 -3 76 -180z m-186 -1132 c-71 -247 -150 -491 -173 -540 -56 -116 -185 -214 -316 -242 -75 -16 -2989 -16 -3064 0 -130 28 -260 127 -315 241 -24 50 -102 293 -174 541 l-8 27 2029 0 2029 0 -8 -27z"/>
    <path d="M2384 3739 c-154 -152 -153 -170 14 -342 141 -145 183 -177 229 -177 50 0 79 19 170 112 88 90 104 127 83 183 -13 34 -251 279 -292 301 -15 8 -46 14 -69 14 -39 0 -47 -6 -135 -91z m241 -164 c52 -53 95 -99 95 -103 0 -4 -19 -27 -43 -50 l-43 -42 -99 100 -99 100 44 45 c24 25 45 45 47 45 1 0 45 -43 98 -95z"/>
    <path d="M3031 3671 c-46 -46 -13 -121 53 -121 95 0 98 130 3 138 -26 2 -42 -3 -56 -17z"/>
    <path d="M1848 3593 c-90 -87 -104 -113 -88 -154 13 -31 59 -54 88 -45 10 4 55 44 100 90 91 93 100 119 57 161 -42 43 -68 34 -157 -52z"/>
    <path d="M3114 3377 c-20 -18 -27 -32 -26 -58 1 -28 13 -46 85 -116 92 -90 114 -99 161 -62 18 15 26 30 26 53 0 28 -13 45 -89 119 -53 53 -97 87 -109 87 -12 0 -33 -11 -48 -23z"/>
    <path d="M1581 3194 c-24 -30 -26 -43 -10 -78 34 -73 139 -44 139 38 0 63 -89 90 -129 40z"/>
    <path d="M2031 3194 c-24 -30 -26 -43 -10 -78 18 -39 56 -48 174 -44 98 3 108 5 126 27 25 30 24 76 -1 101 -18 18 -33 20 -144 20 -123 0 -125 0 -145 -26z"/>
    <path d="M3681 3194 c-34 -44 -26 -86 21 -110 75 -39 146 57 85 114 -33 31 -80 29 -106 -4z"/>
  </g>
</svg>