<?xml version="1.0" encoding="utf-8"?>
<svg viewBox="0 0 512 512" xmlns="http://www.w3.org/2000/svg">

  <ellipse style="fill: rgba(37, 37, 37, 1);; stroke: #ac4042; stroke-width: 10px;" cx="250" cy="256.1" rx="220" ry="220"/>
    <g transform="matrix(0.089397, 0, 0, -0.062594, 21.143143, 414.314948)" fill="#ac4042" stroke="none">
    <path d="M2195 5102 c-53 -26 -75 -51 -130 -152 -58 -106 -79 -128 -124 -136 -194 -33 -253 -57 -292 -120 -25 -42 -30 -120 -15 -261 9 -80 8 -83 -18 -118 l-27 -35 -26 20 c-14 11 -32 20 -39 20 -27 0 -63 -24 -73 -49 -8 -18 -11 -607 -9 -2026 l3 -2000 26 -56 c33 -71 87 -125 158 -158 l56 -26 875 0 875 0 56 26 c71 33 125 87 158 158 l26 56 3 2000 c2 1419 -1 2008 -9 2026 -10 25 -46 49 -73 49 -7 0 -25 -9 -39 -20 l-26 -20 -27 35 c-26 35 -27 38 -18 118 31 288 -2 329 -307 381 -45 8 -66 30 -124 136 -56 103 -85 134 -141 156 -60 23 -118 12 -233 -42 -51 -24 -106 -44 -121 -44 -15 0 -70 20 -122 45 -115 54 -184 65 -243 37z m199 -182 c152 -67 180 -67 334 1 91 40 119 49 136 41 12 -5 44 -51 71 -103 79 -147 117 -174 283 -204 51 -10 102 -25 114 -35 21 -17 21 -20 10 -113 -21 -171 -13 -221 50 -292 l39 -44 -63 -66 -62 -67 -77 154 c-54 107 -88 164 -114 186 -19 18 -40 32 -45 32 -5 0 -25 25 -45 55 -101 152 -289 255 -465 255 -117 0 -264 -54 -350 -127 -43 -37 -45 -38 -130 -39 -99 0 -174 -20 -244 -64 -26 -17 -50 -30 -51 -28 -2 2 -6 35 -10 74 -7 68 -6 73 16 87 13 9 65 23 114 32 161 30 202 59 275 196 46 85 72 119 91 119 6 0 61 -22 123 -50z m261 -365 c69 -18 149 -62 188 -103 l28 -29 -29 -12 c-66 -27 -121 -117 -129 -211 -5 -54 -3 -63 17 -85 45 -47 115 -23 125 43 12 72 16 84 40 108 28 28 79 32 113 8 13 -9 61 -92 108 -186 74 -148 83 -172 71 -187 -7 -9 -49 -59 -93 -111 -44 -52 -120 -144 -168 -205 -48 -60 -91 -111 -95 -113 -3 -1 -15 13 -24 31 -18 32 -18 41 -3 170 9 75 16 149 16 165 0 37 -26 69 -62 78 -42 9 -88 -40 -88 -95 0 -22 -4 -42 -8 -45 -4 -2 -32 37 -62 87 l-53 92 -1 125 c-1 118 -3 128 -32 190 -42 87 -84 142 -138 182 -25 18 -45 36 -46 40 0 12 81 51 135 64 69 17 121 17 190 -1z m-441 -178 c105 -49 177 -152 184 -266 4 -62 4 -63 -19 -56 -12 4 -50 7 -83 7 -66 0 -94 -9 -272 -90 l-112 -50 -78 90 c-88 101 -91 112 -50 203 30 66 68 109 124 142 98 58 208 65 306 20z m-511 -444 c57 -65 159 -183 225 -263 l121 -145 -79 -5 c-94 -7 -124 -26 -122 -82 2 -60 24 -68 186 -68 l141 -1 122 -164 122 -164 -264 -3 c-257 -3 -265 -4 -286 -25 -27 -27 -29 -75 -4 -103 17 -19 30 -20 339 -20 l321 0 105 -161 c58 -89 107 -166 108 -170 2 -5 -189 -9 -426 -9 -417 0 -429 -1 -447 -20 -25 -28 -23 -76 4 -103 21 -22 23 -22 493 -25 l472 -3 26 -30 c48 -57 130 -32 130 40 0 29 -119 230 -258 438 l-82 123 111 152 c62 84 128 174 148 200 l36 47 141 1 c162 0 184 8 186 68 2 56 -28 75 -122 82 l-80 5 121 145 c67 80 169 199 228 264 l106 120 3 -703 c1 -386 1 -1016 0 -1399 l-3 -697 -34 100 c-106 314 -322 791 -378 834 -32 26 -68 21 -97 -12 -14 -17 -17 -31 -12 -64 l6 -43 -559 0 c-518 0 -560 -1 -580 -18 -30 -24 -31 -76 -2 -105 l22 -22 603 -3 603 -2 56 -123 c169 -372 277 -706 332 -1030 30 -179 49 -445 35 -497 -11 -40 -61 -93 -103 -109 -39 -15 -1675 -15 -1714 0 -42 15 -92 68 -103 109 -9 33 -15 3780 -6 3780 2 0 51 -53 109 -117z m679 -39 c15 -8 38 -29 51 -46 34 -46 290 -499 290 -513 0 -14 -154 -225 -164 -225 -4 0 -45 53 -92 118 -106 145 -178 238 -331 426 -65 81 -117 148 -115 150 10 9 217 100 244 107 35 8 79 2 117 -17z"/>
    <path d="M2945 3033 c-55 -14 -75 -83 -35 -123 18 -18 33 -20 173 -20 142 0 155 2 172 20 25 28 23 76 -4 103 -20 20 -32 22 -154 24 -72 1 -141 -1 -152 -4z"/>
    <path d="M3105 2530 c-25 -27 -23 -76 3 -102 16 -17 34 -22 72 -22 61 0 93 26 93 73 0 50 -27 71 -93 71 -44 0 -61 -4 -75 -20z"/>
    <path d="M1871 1572 c-30 -24 -31 -76 -2 -105 19 -20 32 -22 130 -22 126 0 151 12 151 72 0 61 -24 73 -149 73 -89 0 -113 -3 -130 -18z"/>
    <path d="M2350 1570 c-27 -27 -26 -81 1 -106 20 -18 41 -19 356 -19 l335 0 19 24 c26 32 24 73 -4 99 -23 22 -28 22 -355 22 -319 0 -333 -1 -352 -20z"/>
    <path d="M1870 1090 c-33 -33 -30 -75 6 -107 l25 -23 659 0 659 0 25 23 c36 32 39 74 6 107 -20 20 -33 20 -690 20 -657 0 -670 0 -690 -20z"/>
    <path d="M1877 618 c-42 -33 -37 -106 9 -127 35 -16 1313 -16 1348 0 34 16 47 57 31 96 -7 16 -20 33 -30 37 -9 3 -315 6 -679 6 -514 0 -666 -3 -679 -12z"/>
  </g>
</svg>