<?xml version="1.0" encoding="utf-8"?>
<svg viewBox="0 0 1854 270" xmlns="http://www.w3.org/2000/svg">
  <g transform="matrix(0.09, 0, 0, -0.085, 0, 258.000004)" fill="none">
    <path d="M0 1290 l0 -1290 9270 0 9270 0 0 1290 0 1290 -9270 0 -9270 0 0 -1290z m1528 1005 c257 -65 433 -181 603 -395 90 -113 161 -263 200 -420 32 -132 33 -399 1 -535 -83 -360 -361 -660 -702 -756 -76 -22 -104 -24 -270 -23 -156 0 -197 4 -261 21 -127 35 -286 121 -391 210 -51 43 -94 81 -96 85 -2 4 -27 36 -57 72 -69 84 -103 145 -159 283 -79 192 -103 397 -71 601 55 345 256 631 549 777 154 77 263 103 429 104 105 1 146 -3 225 -24z m2186 -210 c26 -8 63 -24 81 -35 46 -28 114 -104 132 -147 18 -43 43 -171 43 -219 0 -19 3 -34 8 -34 4 0 23 22 42 47 34 45 117 144 225 268 29 33 75 73 104 89 46 25 62 28 141 27 108 0 142 -13 213 -80 79 -75 109 -143 115 -261 4 -89 3 -99 -23 -150 -18 -36 -76 -103 -180 -209 l-153 -156 70 -75 c114 -122 316 -367 340 -413 19 -35 23 -58 23 -142 0 -87 -3 -106 -25 -149 -14 -27 -45 -68 -69 -92 -63 -62 -121 -88 -209 -92 -68 -4 -79 -2 -146 31 -73 37 -129 92 -237 238 -61 82 -213 269 -219 269 -3 0 -5 -69 -5 -153 0 -143 -2 -155 -26 -208 -51 -108 -143 -170 -264 -177 -162 -9 -297 97 -333 263 -14 61 -19 202 -33 810 -10 461 -10 471 10 536 26 83 67 140 126 174 91 54 164 66 249 40z m2638 4 c29 -6 77 -23 106 -37 59 -28 151 -120 181 -180 20 -41 71 -192 97 -292 18 -71 30 -92 39 -69 3 8 21 83 40 168 19 84 45 174 57 199 33 66 117 148 185 180 51 24 70 27 158 27 91 0 106 -3 165 -31 168 -81 222 -175 270 -469 25 -149 54 -306 95 -515 89 -451 95 -515 64 -620 -17 -54 -92 -138 -153 -168 -38 -20 -62 -23 -133 -23 -73 1 -94 5 -137 27 -58 30 -130 95 -153 139 -25 46 -51 160 -64 273 -7 56 -15 102 -19 102 -4 0 -11 -24 -14 -52 -11 -78 -70 -296 -94 -348 -29 -61 -63 -95 -123 -126 -139 -70 -280 -24 -364 120 -26 45 -87 212 -121 334 -10 39 -20 59 -24 50 -4 -7 -13 -70 -19 -140 -19 -205 -51 -274 -157 -338 -53 -32 -66 -35 -146 -38 -76 -4 -94 -1 -141 21 -74 34 -131 88 -164 155 -51 104 -44 191 93 1162 31 223 51 283 126 372 56 68 174 122 275 127 12 1 46 -4 75 -10z m-945 -30 c26 -12 63 -39 83 -60 42 -43 94 -137 105 -188 9 -42 32 -932 31 -1161 -1 -152 -3 -168 -25 -210 -38 -73 -85 -124 -142 -153 -47 -23 -66 -27 -145 -27 -85 0 -93 2 -150 35 -102 61 -153 135 -172 250 -10 58 -27 813 -27 1160 1 189 3 200 72 276 49 54 88 81 142 96 64 18 171 9 228 -18z m3576 2 c288 -74 527 -291 642 -585 52 -133 60 -178 60 -341 0 -134 -3 -159 -26 -235 -54 -175 -155 -340 -266 -436 -118 -102 -197 -145 -352 -190 -113 -33 -294 -36 -413 -5 -273 70 -490 248 -622 508 -68 135 -89 234 -89 423 1 163 18 249 73 367 116 248 316 423 565 494 89 26 326 26 428 0z m4000 4 c144 -25 298 -97 426 -198 122 -96 249 -288 307 -464 32 -95 37 -123 41 -238 4 -116 2 -142 -21 -238 -45 -188 -176 -402 -308 -503 -179 -137 -413 -208 -610 -184 -325 39 -577 223 -737 536 -52 101 -101 289 -101 383 0 103 36 285 75 374 95 222 224 361 420 456 172 83 330 107 508 76z m-2013 -5 c152 -18 259 -41 331 -70 280 -114 453 -310 540 -615 27 -93 36 -277 19 -386 -46 -305 -236 -554 -510 -665 -130 -52 -228 -64 -535 -61 -280 2 -280 2 -337 29 -105 49 -180 149 -198 265 -15 99 -42 1196 -30 1249 30 135 110 215 248 248 69 17 349 21 472 6z m3326 -16 c79 -42 127 -87 231 -217 54 -67 130 -159 170 -204 39 -45 90 -110 114 -143 23 -33 46 -60 51 -60 6 0 7 29 3 73 -4 39 -7 124 -8 187 0 97 3 124 22 171 42 108 135 189 244 210 146 30 312 -88 363 -258 15 -49 27 -284 41 -818 13 -468 12 -490 -18 -555 -55 -119 -135 -178 -252 -187 -117 -9 -175 14 -262 102 -38 38 -90 97 -115 130 -25 33 -110 141 -189 240 -79 99 -144 181 -145 182 0 1 -1 -94 -1 -210 0 -207 -1 -213 -26 -267 -68 -145 -217 -211 -372 -166 -73 21 -151 95 -195 186 -44 88 -50 150 -62 660 -19 734 -19 706 12 772 34 74 97 141 161 173 72 35 165 35 233 -1z m2346 -21 c54 -25 130 -98 158 -153 11 -21 24 -65 29 -98 21 -133 -45 -266 -159 -317 -22 -10 -40 -21 -40 -26 0 -4 22 -23 50 -43 106 -76 156 -221 115 -337 -23 -64 -63 -117 -117 -153 l-47 -32 59 -27 c81 -37 144 -109 170 -194 26 -83 25 -128 -1 -199 -28 -74 -76 -126 -152 -164 l-62 -31 -350 6 -350 7 -53 26 c-72 35 -154 125 -182 199 -20 53 -23 87 -31 373 -5 173 -13 384 -19 469 -21 323 -12 470 34 559 23 45 122 130 164 141 71 18 89 19 412 17 310 -1 327 -2 372 -23z m1130 17 c237 -23 395 -111 500 -280 54 -86 75 -147 92 -258 16 -111 9 -233 -18 -312 -20 -58 -74 -144 -117 -186 l-37 -36 46 -62 c88 -117 98 -131 120 -167 33 -54 55 -154 49 -218 -14 -131 -113 -254 -231 -286 -107 -29 -198 -2 -291 86 -46 44 -143 178 -224 312 -12 20 -26 37 -29 37 -4 0 -7 -44 -7 -98 0 -86 -3 -104 -29 -160 -20 -42 -44 -75 -75 -101 -77 -64 -107 -76 -196 -76 -72 0 -86 3 -143 34 -70 38 -125 95 -160 164 -30 60 -37 159 -54 692 -18 625 -18 668 13 735 49 105 120 160 231 179 75 12 433 13 560 1z" style="lengthAdjust='spacing'"/>
    <path d="M1220 2197 c-3 -2 -27 -7 -55 -10 -100 -11 -236 -67 -345 -141 l-45 -31 150 -5 c162 -5 195 -20 74 -32 -113 -12 -163 -50 -139 -107 35 -87 194 -190 422 -275 229 -85 524 -122 618 -77 42 20 50 18 50 -11 0 -13 -15 -26 -47 -40 -42 -19 -65 -22 -188 -21 -103 0 -164 6 -230 21 -227 51 -459 136 -606 223 -116 69 -150 97 -185 152 -24 36 -47 47 -59 27 -11 -17 54 -138 98 -183 24 -24 77 -65 117 -92 41 -26 92 -59 112 -73 68 -45 290 -133 422 -167 161 -42 319 -58 468 -46 156 13 231 56 259 150 10 34 9 45 -14 94 -14 30 -51 83 -82 117 -31 34 -54 64 -51 67 7 8 67 -31 96 -62 30 -32 110 -89 116 -83 6 7 -40 90 -101 185 -64 98 -155 192 -249 257 -65 44 -182 106 -202 106 -8 0 -115 -334 -129 -402 -6 -33 -32 -37 -65 -10 l-23 19 17 94 c26 152 50 338 44 345 -8 7 -241 18 -248 11z" style="fill: rgb(207, 20, 19); stroke:white;stroke-width:50"/>
    <path d="M576 1793 c-13 -14 -77 -157 -97 -217 -50 -158 -62 -313 -35 -476 18 -110 36 -163 98 -288 49 -98 180 -270 224 -295 10 -5 30 -22 46 -38 28 -27 199 -129 216 -129 5 0 16 25 26 57 l18 56 -50 46 c-43 39 -82 94 -82 116 0 13 23 2 57 -29 21 -18 47 -38 58 -44 47 -24 152 -52 197 -52 41 0 50 3 57 23 12 31 -2 44 -56 52 -71 10 -219 81 -299 141 -83 63 -125 120 -132 180 -7 69 19 65 73 -10 31 -44 146 -120 249 -165 160 -70 336 -96 449 -66 22 6 27 4 27 -11 -1 -20 -14 -41 -42 -62 -28 -22 -133 -42 -183 -35 -37 5 -45 3 -45 -10 0 -9 5 -19 10 -22 15 -10 12 -61 -5 -75 -16 -13 -167 -16 -186 -5 -25 16 -63 -31 -75 -92 -4 -23 13 -29 166 -53 129 -20 279 -5 387 38 26 11 63 26 82 33 59 22 183 109 246 173 85 84 169 220 210 336 39 112 81 320 68 342 -2 4 -25 -6 -51 -21 -78 -46 -176 -69 -330 -78 -108 -7 -400 48 -576 108 -232 79 -464 215 -581 341 -70 76 -87 106 -106 181 -12 48 -21 62 -33 50z m150 -481 c28 -67 110 -134 250 -205 84 -42 279 -111 344 -122 25 -4 79 -15 122 -26 88 -22 281 -26 354 -8 54 14 104 66 104 109 0 38 10 38 39 0 28 -39 52 -105 45 -128 -22 -67 -59 -95 -167 -123 -114 -30 -222 -24 -457 22 -80 16 -274 82 -350 118 -159 77 -270 159 -321 240 -32 52 -36 85 -14 137 17 41 29 37 51 -14z" style="fill: rgb(207, 20, 19); stroke:white;stroke-width:50"/>
    <path d="M 3565.041 1999 C 3482.214 1969 3417.674 1900 3396.161 1816 C 3391.858 1800 3394.01 1652 3399.388 1486 C 3405.842 1321 3413.372 1056 3416.599 899 C 3426.28 486 3440.263 440 3583.327 372 C 3668.305 332 3733.92 329 3807.066 364 C 3870.53 394 3898.497 422 3928.616 485 C 3951.205 533 3952.281 541 3944.751 777 C 3936.146 1042 3938.297 1053 3992.08 986 C 4023.275 946 4236.257 700 4395.455 519 C 4490.114 411 4515.93 388 4566.487 366 C 4640.708 333 4700.945 333 4771.939 364 C 4827.874 388 4871.976 428 4902.095 482 C 4922.532 519 4933.289 605 4923.608 653 C 4912.851 704 4831.101 810 4689.113 956 C 4620.27 1027 4544.973 1108 4522.384 1135 C 4498.719 1163 4471.828 1191 4462.147 1199 C 4451.39 1206 4443.86 1220 4443.86 1230 C 4443.86 1239 4524.535 1325 4624.573 1420 C 4723.534 1515 4811.739 1604 4820.344 1619 C 4831.101 1637 4836.479 1673 4836.479 1735 C 4836.479 1810 4832.176 1833 4809.587 1873 C 4760.107 1964 4692.34 2000 4570.789 2000 C 4465.374 2000 4441.709 1985 4311.553 1840 C 4141.598 1650 3943.675 1440 3936.146 1440 C 3930.767 1440 3928.616 1450 3931.843 1463 C 3933.994 1476 3932.919 1563 3928.616 1656 C 3921.086 1812 3917.859 1829 3892.043 1877 C 3858.698 1936 3812.444 1973 3733.92 2001 C 3667.229 2025 3636.035 2024 3565.041 1999 Z" style="fill: rgb(207, 20, 19); stroke:white;stroke-width:70"/>
    <path d="M 6454.522 2001 C 6351.879 1973 6290.505 1925 6248.179 1840 C 6225.957 1794 6197.386 1651 6175.164 1475 C 6168.815 1420 6154.001 1319 6143.419 1250 C 6089.452 915 6056.649 662 6055.59 585 C 6054.532 514 6077.812 463 6130.721 412 C 6253.469 296 6461.929 322 6533.885 462 C 6545.525 486 6560.34 539 6566.689 580 C 6575.154 637 6607.958 1101 6609.016 1178 C 6609.016 1214 6635.47 1176 6658.749 1105 C 6770.916 762 6888.373 439 6910.595 408 C 6986.784 302 7167.731 301 7243.92 405 C 7260.851 428 7284.13 480 7295.77 521 C 7306.352 562 7330.69 642 7347.621 700 C 7388.89 837 7410.053 920 7440.74 1059 C 7464.019 1170 7480.95 1210 7491.532 1179 C 7493.648 1171 7508.463 1075 7523.277 965 C 7560.313 704 7592.059 523 7608.99 484 C 7632.269 431 7695.76 373 7748.669 356 C 7905.278 306 8042.841 370 8081.994 512 C 8095.75 565 8093.633 588 8031.201 920 C 8011.096 1027 7982.525 1180 7967.71 1260 C 7952.896 1340 7931.732 1446 7921.151 1495 C 7910.569 1545 7897.871 1605 7894.696 1630 C 7884.115 1701 7847.078 1811 7819.567 1857 C 7739.145 1989 7529.626 2048 7386.773 1979 C 7327.516 1950 7268.258 1894 7237.571 1837 C 7214.291 1794 7169.847 1644 7132.811 1485 C 7105.299 1365 7072.495 1243 7064.03 1230 C 7050.274 1209 7043.925 1220 7016.413 1312 C 6976.202 1448 6877.792 1751 6854.512 1808 C 6813.243 1910 6753.985 1961 6630.179 1999 C 6550.816 2024 6539.176 2024 6454.522 2001 Z" style="fill: rgb(207, 20, 19); stroke:white;stroke-width:70;lengthAdjust='spacing'"/>
    <path d="M 5392.796 2001 C 5317.125 1989 5244.793 1941 5208.07 1875 C 5185.813 1837 5185.813 1826 5193.603 1415 C 5204.732 841 5216.972 552 5232.551 506 C 5249.244 457 5324.915 382 5382.781 359 C 5439.534 335 5554.154 334 5603.118 356 C 5653.194 379 5698.819 419 5723.3 462 C 5742.219 496 5744.444 523 5744.444 802 C 5743.332 1297 5725.527 1776 5705.496 1838 C 5666.547 1954 5535.236 2023 5392.796 2001 Z" style="fill: rgb(207, 20, 19); stroke:white;stroke-width:70"/>
    <path d="M 8922.295 1990 C 8853.927 1978 8790.9 1955 8699.03 1909 C 8489.652 1804 8359.326 1647 8280.275 1410 C 8258.91 1346 8254.637 1314 8255.705 1190 C 8255.705 1018 8268.524 961 8345.438 815 C 8436.24 642 8569.771 510 8738.555 427 C 8889.179 353 8965.025 336 9141.287 337 C 9273.75 338 9300.456 341 9376.302 365 C 9553.632 420 9647.638 479 9774.761 615 C 9849.538 694 9884.791 753 9932.862 880 C 9968.114 974 9972.387 998 9976.66 1110 C 9983.07 1261 9962.773 1357 9893.337 1502 C 9771.556 1756 9523.721 1944 9252.385 1989 C 9174.402 2001 8996.004 2002 8922.295 1990 Z M 9247.044 1520 C 9353.869 1470 9436.124 1353 9458.558 1223 C 9482.059 1079 9451.08 977 9352.801 878 C 9285.501 811 9225.679 787 9125.263 786 C 9040.871 785 8993.868 801 8915.885 857 C 8866.746 892 8799.446 988 8784.49 1044 C 8762.057 1128 8767.398 1276 8794.104 1343 C 8825.084 1421 8916.954 1509 8991.731 1533 C 9066.509 1557 9179.744 1551 9247.044 1520 Z" style="fill: rgb(207, 20, 19); stroke:white;stroke-width:70"/>
    <path d="M8712 1454 c-52 -18 -125 -100 -143 -160 -19 -67 -17 -178 4 -243 67 -199 301 -249 418 -88 115 159 47 437 -120 491 -53 17 -107 17 -159 0z"/>
    <path d="M 13370.119 1971 C 13211.725 1931 13056.542 1840 12944.168 1719 C 12827.513 1595 12733.333 1353 12733.333 1182 C 12734.403 1004 12841.426 743 12968.783 607 C 13023.365 549 13169.986 441 13236.34 410 C 13594.867 240 14042.223 330 14274.463 619 C 14505.632 905 14530.247 1267 14337.606 1565 C 14205.968 1769 14059.347 1882 13830.318 1958 C 13724.365 1993 13482.493 2000 13370.119 1971 Z M 13683.696 1525 C 13837.809 1482 13956.605 1313 13957.675 1135 C 13957.675 1000 13869.916 862 13745.769 803 C 13666.572 765 13562.76 765 13479.282 803 C 13323.029 875 13223.498 1069 13256.675 1237 C 13301.624 1465 13475.001 1582 13683.696 1525 Z" style="fill: rgb(207, 20, 19); stroke:white;stroke-width:70"/>
    <path d="M 13020.222 1451 C 12938.222 1424 12887.222 1361 12856.222 1251 C 12841.222 1196 12840.222 1177 12850.222 1118 C 12879.222 948 12968.222 860 13108.222 860 C 13255.222 861 13361.222 1011 13341.222 1190 C 13335.222 1249 13295.222 1339 13259.222 1378 C 13202.222 1439 13090.222 1473 13020.222 1451 Z"/>
    <path d="M 11147.714 1961 C 11080.106 1935 11051.131 1909 11016.79 1843 L 10988.888 1790 L 10996.4 1408 C 11003.912 997 11018.936 609 11029.668 546 C 11040.399 492 11095.13 420 11153.08 387 C 11224.981 346 11318.345 337 11602.73 343 C 11937.553 351 12050.233 376 12224.084 484 C 12290.619 525 12418.324 642 12418.324 662 C 12418.324 666 12432.275 690 12450.518 716 C 12579.296 906 12603.979 1211 12509.541 1445 C 12395.788 1727 12190.816 1889 11871.017 1952 C 11788.385 1968 11714.337 1972 11484.683 1976 C 11219.615 1980 11197.079 1979 11147.714 1961 Z M 11775.507 1504 C 11850.627 1484 11947.211 1415 11991.21 1349 C 12057.745 1247 12069.55 1094 12019.112 992 C 11986.917 930 11915.016 864 11846.335 835 C 11788.385 811 11588.779 781 11557.657 792 C 11543.706 797 11540.487 836 11534.048 1052 C 11529.756 1191 11524.39 1353 11521.17 1413 L 11515.805 1520 L 11614.534 1520 C 11673.558 1520 11739.02 1513 11775.507 1504 Z" style="fill: rgb(207, 20, 19); stroke:white;stroke-width:70"/>
    <path d="M 11117.222 1440 C 11110.222 1429 11119.222 992 11128.222 921 L 11134.222 878 L 11200.222 885 C 11288.222 894 11338.222 917 11388.222 972 C 11444.222 1032 11461.222 1102 11443.222 1197 C 11436.222 1233 11422.222 1280 11412.222 1300 C 11377.222 1369 11297.222 1421 11197.222 1439 C 11125.222 1452 11125.222 1452 11117.222 1440 Z"/>
    <path d="M 14860.353 1980 C 14809.669 1965 14749.279 1913 14718.006 1856 L 14688.889 1805 L 14692.125 1570 C 14695.36 1237 14713.692 721 14725.555 615 C 14739.574 494 14783.788 409 14859.275 363 C 14906.724 333 14918.586 330 14995.152 330 C 15072.795 330 15083.579 333 15131.028 363 C 15165.537 385 15192.496 414 15210.829 446 C 15235.632 491 15237.789 506 15241.024 661 C 15243.181 753 15239.946 892 15233.475 971 C 15228.083 1050 15225.926 1117 15229.162 1120 C 15237.789 1128 15421.115 922 15655.125 641 C 15827.667 433 15883.743 376 15944.133 347 C 15998.052 321 16009.914 319 16072.461 324 C 16152.261 332 16184.613 345 16232.062 392 C 16292.452 450 16300.001 481 16300.001 665 C 16300.001 918 16279.511 1572 16267.649 1687 C 16262.257 1744 16250.395 1806 16241.768 1825 C 16214.808 1885 16160.889 1937 16102.656 1960 C 15978.641 2010 15848.156 1966 15779.139 1851 L 15746.788 1797 L 15757.572 1501 C 15762.964 1338 15766.199 1203 15762.964 1200 C 15757.572 1194 15688.555 1266 15628.165 1340 C 15604.441 1370 15549.443 1433 15506.307 1480 C 15463.172 1527 15359.647 1643 15275.532 1738 C 15100.834 1936 15040.444 1982 14946.624 1987 C 14917.508 1988 14878.686 1985 14860.353 1980 Z" style="fill: rgb(207, 20, 19); stroke:white;stroke-width:70"/>
    <path d="M 16797.917 1959 C 16686.571 1950 16623.732 1910 16578.532 1820 C 16550.971 1766 16549.868 1705 16566.405 1330 C 16573.02 1190 16581.839 960 16587.351 820 C 16598.376 521 16608.298 482 16694.288 410 C 16779.176 339 16774.766 340 17198.103 340 L 17576.24 340 L 17620.338 366 C 17709.636 418 17752.631 522 17725.07 616 C 17709.636 667 17640.182 741 17583.957 766 C 17548.679 781 17510.094 785 17339.216 787 C 17227.869 788 17134.162 791 17130.854 794 C 17117.625 806 17115.42 908 17127.547 915 C 17135.264 919 17189.284 924 17247.713 926 C 17481.431 935 17503.479 938 17553.089 964 C 17622.543 1001 17663.333 1079 17654.514 1159 C 17647.899 1225 17629.158 1265 17580.65 1309 C 17527.733 1356 17458.279 1370 17270.864 1370 C 17133.059 1370 17107.703 1372 17102.191 1386 C 17095.576 1401 17092.269 1499 17098.884 1501 C 17099.986 1502 17201.411 1505 17323.782 1509 L 17545.372 1515 L 17587.265 1546 C 17651.206 1592 17679.87 1650 17679.87 1729 C 17679.87 1771 17672.153 1809 17658.923 1835 C 17633.567 1887 17558.601 1947 17512.299 1954 C 17460.484 1962 16883.908 1966 16797.917 1959 Z" style="fill: rgb(207, 20, 19); stroke:white;stroke-width:70"/>
    <path d="M 18120.714 1951 C 18070.68 1940 18044.576 1924 18003.244 1880 C 17936.895 1808 17934.72 1781 17957.561 1270 C 17960.824 1207 17968.438 1016 17974.964 845 C 17980.403 674 17991.279 519 17997.806 500 C 18029.348 407 18114.188 340 18227.307 318 C 18277.34 308 18293.655 309 18334.987 323 C 18392.634 343 18444.843 388 18477.474 444 C 18498.14 480 18501.403 503 18503.578 625 C 18505.753 702 18501.403 801 18495.964 845 C 18489.438 892 18489.438 928 18494.877 933 C 18500.315 938 18582.979 834 18696.098 677 C 18901.67 391 18950.616 340 19041.981 315 C 19151.837 285 19263.868 334 19317.165 435 C 19391.127 573 19366.11 651 19172.503 884 L 19093.102 979 L 19169.24 1047 C 19274.745 1143 19312.814 1232 19313.902 1383 C 19314.989 1636 19208.396 1812 19001.737 1901 C 18947.353 1925 18883.179 1944 18837.497 1950 C 18752.657 1961 18170.747 1962 18120.714 1951 Z M 18722.202 1501 C 18786.375 1485 18807.041 1427 18773.323 1354 L 18758.096 1319 L 18624.311 1322 L 18490.526 1325 L 18480.737 1409 C 18474.211 1468 18475.298 1494 18484 1499 C 18504.666 1511 18676.52 1512 18722.202 1501 Z" style="fill: rgb(207, 20, 19); stroke:white;stroke-width:70"/>
    <path d="M 17827.222 1419 C 17823.222 1413 17822.222 1406 17825.222 1403 C 17835.222 1394 17911.222 1388 17939.222 1395 C 17966.222 1401 17966.222 1402 17948.222 1416 C 17925.222 1432 17836.222 1435 17827.222 1419 Z"/>
  </g>
</svg>